<svg width="61" height="65" viewBox="0 0 61 65" fill="none" xmlns="http://www.w3.org/2000/svg">
<path d="M4.22586 64.9902C2.48471 65.1358 0.863847 64.0608 0.264953 62.3633C-1.60958 57.4016 6.89607 48.3317 12.1332 43.3663C12.5597 42.962 13.2222 42.9918 13.613 43.433C14.0038 43.8741 13.975 44.5595 13.5486 44.9638C5.67291 52.4309 1.22431 58.9493 2.21425 61.5703C2.84416 63.2123 4.56736 63.0461 7.32962 62.2035C8.34207 61.8993 9.34228 61.5688 10.3435 61.2381C12.4378 60.5035 14.5695 59.8887 16.7291 59.3965C20.6319 58.6188 24.6089 58.3135 28.5799 58.4867L30.1139 58.4975C30.155 58.4975 30.196 58.5002 30.2367 58.5054C30.3201 58.4949 30.4045 58.4949 30.488 58.5054C30.5281 58.5001 30.5684 58.4975 30.6088 58.4975L32.1429 58.4867C36.1143 58.3135 40.0916 58.6189 43.9948 59.3967C46.154 59.8888 48.2854 60.5036 50.3793 61.2384C51.3805 61.569 52.3807 61.8992 53.3891 62.2025C56.1574 63.0484 57.8806 63.2129 58.5106 61.5662C59.4985 58.9499 55.0499 52.4314 47.1742 44.9644C46.7478 44.5601 46.7189 43.8747 47.1098 43.4336C47.5006 42.9925 48.1631 42.9626 48.5896 43.3669C53.8267 48.3324 62.3324 57.4022 60.4598 62.3592C58.9984 66.1709 54.8147 64.8966 52.8 64.282C51.7793 63.9752 50.7608 63.6392 49.7421 63.3029C47.7211 62.5933 45.6642 61.9986 43.5805 61.5212C39.8191 60.7698 35.9853 60.4789 32.1582 60.6545L30.6692 60.6642C30.464 60.6705 30.2588 60.6705 30.0536 60.6642L28.5646 60.6534C24.7378 60.4783 20.9044 60.7692 17.1432 61.52C15.0592 61.9977 13.002 62.5926 10.9807 63.3022C9.96202 63.6386 8.94349 63.9745 7.91868 64.2828C6.72585 64.6964 5.48275 64.9345 4.22586 64.9902Z" fill="#05092B"/>
<path d="M30.36 53.0837C18.6543 53.0832 8.49867 44.7234 5.86903 32.9237C3.23938 21.1239 8.83202 9.00832 19.356 3.70631C19.6936 3.52674 20.0987 3.55024 20.4148 3.76774C20.7309 3.98523 20.9085 4.36264 20.8789 4.75416C20.8493 5.14568 20.6172 5.48998 20.2723 5.65404C10.0359 10.8106 4.97535 22.9289 8.36273 34.1737C11.7501 45.4185 22.5695 52.4176 33.8255 50.6456C45.0815 48.8736 53.3984 38.8619 53.3989 27.0837C53.4377 17.9545 48.3982 9.61599 40.4477 5.65404C40.1028 5.48998 39.8707 5.14568 39.8411 4.75416C39.8115 4.36264 39.9891 3.98523 40.3052 3.76774C40.6213 3.55024 41.0264 3.52674 41.364 3.70631C51.888 9.00832 57.4806 21.1239 54.851 32.9237C52.2213 44.7234 42.0656 53.0832 30.36 53.0837Z" fill="#05092B"/>
<path d="M21.9335 9.41514C21.6592 9.41558 21.3874 9.36079 21.1334 9.25383C20.6097 9.03466 20.196 8.60267 19.989 8.05892L18.8236 5.03317C18.3965 3.95231 18.8807 2.7163 19.9148 2.24813C26.5764 -0.749378 34.1424 -0.749378 40.804 2.24813C41.8376 2.71631 42.3221 3.95139 41.8962 5.0323L40.7303 8.05892C40.5233 8.60267 40.1096 9.03466 39.5859 9.25383C39.0476 9.4795 38.4437 9.46918 37.9129 9.22523C33.0976 7.04589 27.6212 7.04589 22.8059 9.22523C22.531 9.35052 22.2339 9.4152 21.9335 9.41514ZM30.3594 2.16667C27.0529 2.16057 23.7812 2.86449 20.7513 4.23388L21.9335 7.25639C27.2915 4.80732 33.3981 4.80252 38.7597 7.24317L38.7863 7.254L39.9501 4.2315C36.9263 2.86239 33.6601 2.15921 30.3594 2.16667Z" fill="#05092B"/>
<path d="M30.3589 42.2479C22.2618 42.2479 15.6978 35.4575 15.6978 27.0812C15.6978 18.7049 22.2618 11.9146 30.3589 11.9146C38.456 11.9146 45.02 18.7049 45.02 27.0812C45.0109 35.4536 38.4522 42.2385 30.3589 42.2479ZM30.3589 14.0812C23.4185 14.0812 17.7922 19.9015 17.7922 27.0812C17.7922 34.2609 23.4185 40.0812 30.3589 40.0812C37.2992 40.0812 42.9255 34.2609 42.9255 27.0812C42.9178 19.9048 37.296 14.0892 30.3589 14.0812Z" fill="#05092B"/>
<path d="M30.3596 36.8354C25.1543 36.8354 20.9346 32.4702 20.9346 27.0854C20.9346 21.7007 25.1543 17.3354 30.3596 17.3354C35.5649 17.3354 39.7846 21.7007 39.7846 27.0854C39.7788 32.4678 35.5625 36.8295 30.3596 36.8354ZM30.3596 19.5021C26.311 19.5021 23.029 22.8973 23.029 27.0854C23.029 31.2736 26.311 34.6688 30.3596 34.6688C34.4081 34.6688 37.6901 31.2736 37.6901 27.0854C37.6855 22.8993 34.4062 19.507 30.3596 19.5021Z" fill="#05092B"/>
<path d="M32.9782 29.25C30.3756 29.25 28.2657 27.0674 28.2657 24.375C28.2657 21.6826 30.3756 19.5 32.9782 19.5C35.5809 19.5 37.6907 21.6826 37.6907 24.375C37.6879 27.0662 35.5797 29.247 32.9782 29.25ZM32.9782 21.6667C31.5323 21.6667 30.3602 22.8792 30.3602 24.375C30.3602 25.8708 31.5323 27.0833 32.9782 27.0833C34.4242 27.0833 35.5963 25.8708 35.5963 24.375C35.5948 22.8799 34.4235 21.6682 32.9782 21.6667Z" fill="#05092B"/>
<path d="M6.85176 33.543C6.29441 33.5428 5.83485 33.0911 5.80625 32.5153C5.77765 31.9395 6.19002 31.4414 6.74442 31.3821C8.86587 31.1387 10.4699 29.2819 10.4662 27.0738C10.4625 24.8658 8.85232 23.0148 6.73007 22.7789C6.45398 22.7483 6.20099 22.6053 6.02682 22.3816C5.85265 22.1579 5.77159 21.8717 5.8015 21.5861C5.82781 21.2989 5.96515 21.0349 6.18236 20.8539C6.39957 20.6729 6.67823 20.5903 6.95512 20.6249C10.1421 20.9801 12.5585 23.7622 12.5601 27.0782C12.5617 30.3942 10.1479 33.1788 6.96119 33.5372C6.92485 33.5412 6.88831 33.5431 6.85176 33.543Z" fill="#05092B"/>
<path d="M53.8744 33.5404C53.8378 33.5406 53.8013 33.5386 53.7649 33.5346C50.5782 33.1762 48.1645 30.3916 48.166 27.0756C48.1676 23.7596 50.584 20.9775 53.771 20.6223C54.3422 20.565 54.8516 20.9939 54.9133 21.5842C54.9749 22.1744 54.5659 22.706 53.996 22.7763C51.8738 23.0122 50.2636 24.8632 50.2599 27.0713C50.2562 29.2793 51.8602 31.1361 53.9817 31.3795C54.5361 31.4388 54.9485 31.9369 54.9199 32.5127C54.8913 33.0885 54.4317 33.5402 53.8744 33.5404Z" fill="#05092B"/>
</svg>
