<svg width="65" height="65" viewBox="0 0 65 65" fill="none" xmlns="http://www.w3.org/2000/svg">
<path d="M52.0042 65H13.0042C10.6121 64.9973 8.67359 63.0588 8.6709 60.6667V4.33333C8.67359 1.94121 10.6121 0.0026866 13.0042 0H52.0042C54.3964 0.0026866 56.3349 1.94121 56.3376 4.33333V60.6667C56.3349 63.0588 54.3964 64.9973 52.0042 65ZM13.0042 2.16667C11.8081 2.16786 10.8388 3.13721 10.8376 4.33333V60.6667C10.8388 61.8628 11.8081 62.8321 13.0042 62.8333H52.0042C53.2004 62.8321 54.1697 61.8628 54.1709 60.6667V4.33333C54.1697 3.13721 53.2004 2.16786 52.0042 2.16667H13.0042Z" fill="#05092B"/>
<path d="M40.0876 8.66667H20.5876C19.3914 8.66547 18.4221 7.69612 18.4209 6.5V1.08333C18.4209 0.485025 18.9059 0 19.5042 0H41.1709C41.7692 0 42.2542 0.485025 42.2542 1.08333V6.5C42.253 7.69612 41.2837 8.66547 40.0876 8.66667ZM20.5876 2.16667V6.5H40.0876V2.16667H20.5876Z" fill="#05092B"/>
<path d="M14.0833 6.50212C14.6816 6.50212 15.1667 6.01709 15.1667 5.41878C15.1667 4.82047 14.6816 4.33545 14.0833 4.33545C13.485 4.33545 13 4.82047 13 5.41878C13 6.01709 13.485 6.50212 14.0833 6.50212Z" fill="#05092B"/>
<path d="M50.9251 6.50212C51.5234 6.50212 52.0085 6.01709 52.0085 5.41878C52.0085 4.82047 51.5234 4.33545 50.9251 4.33545C50.3268 4.33545 49.8418 4.82047 49.8418 5.41878C49.8418 6.01709 50.3268 6.50212 50.9251 6.50212Z" fill="#05092B"/>
<path d="M14.0833 60.6667C14.6816 60.6667 15.1667 60.1816 15.1667 59.5833C15.1667 58.985 14.6816 58.5 14.0833 58.5C13.485 58.5 13 58.985 13 59.5833C13 60.1816 13.485 60.6667 14.0833 60.6667Z" fill="#05092B"/>
<path d="M50.9251 60.6667C51.5234 60.6667 52.0085 60.1816 52.0085 59.5833C52.0085 58.985 51.5234 58.5 50.9251 58.5C50.3268 58.5 49.8418 58.985 49.8418 59.5833C49.8418 60.1816 50.3268 60.6667 50.9251 60.6667Z" fill="#05092B"/>
<path d="M33.5833 8.66667C32.985 8.66667 32.5 8.18164 32.5 7.58333V1.08333C32.5 0.485025 32.985 0 33.5833 0C34.1816 0 34.6667 0.485025 34.6667 1.08333V7.58333C34.6667 8.18164 34.1816 8.66667 33.5833 8.66667Z" fill="#05092B"/>
<path d="M46.5833 57.4167H18.4167C15.4266 57.4132 13.0035 54.9901 13 52V21.6667C13.0035 18.6766 15.4266 16.2535 18.4167 16.25H46.5833C49.5734 16.2535 51.9965 18.6766 52 21.6667V52C51.9965 54.9901 49.5734 57.4132 46.5833 57.4167ZM18.4167 18.4167C16.6226 18.4186 15.1686 19.8726 15.1667 21.6667V52C15.1686 53.7941 16.6226 55.248 18.4167 55.25H46.5833C48.3774 55.248 49.8314 53.7941 49.8333 52V21.6667C49.8314 19.8726 48.3774 18.4186 46.5833 18.4167H18.4167Z" fill="#05092B"/>
<path d="M21.6753 37.9194C19.9225 37.9202 18.3421 36.8646 17.6715 35.2452C17.0009 33.6258 17.3724 31.7619 18.6126 30.5234C20.3257 28.8848 23.0249 28.8848 24.738 30.5234C25.5536 31.3335 26.0112 32.4364 26.0086 33.5861C26.0086 34.1844 25.5236 34.6694 24.9253 34.6694C24.327 34.6694 23.842 34.1844 23.842 33.5861C23.843 33.0113 23.614 32.4601 23.2062 32.0552C22.3502 31.2353 21.0003 31.2353 20.1444 32.0552C19.524 32.6742 19.338 33.6062 19.6732 34.4159C20.0085 35.2257 20.7989 35.7534 21.6753 35.7527C22.2736 35.7527 22.7586 36.2377 22.7586 36.8361C22.7586 37.4344 22.2736 37.9194 21.6753 37.9194Z" fill="#05092B"/>
<path d="M21.6751 44.4167C19.283 44.414 17.3445 42.4755 17.3418 40.0833C17.3418 39.485 17.8268 39 18.4251 39C19.0234 39 19.5085 39.485 19.5085 40.0833C19.5094 41.2785 20.4788 42.2469 21.674 42.2465C22.8692 42.2462 23.838 41.2774 23.8383 40.0822C23.8386 38.887 22.8703 37.9176 21.6751 37.9167C21.0768 37.9167 20.5918 37.4316 20.5918 36.8333C20.5918 36.235 21.0768 35.75 21.6751 35.75C24.0684 35.75 26.0085 37.6901 26.0085 40.0833C26.0085 42.4766 24.0684 44.4167 21.6751 44.4167Z" fill="#05092B"/>
<path d="M32.5044 37.9194C30.7516 37.9202 29.1712 36.8646 28.5006 35.2452C27.83 33.6258 28.2015 31.7619 29.4417 30.5234C31.1548 28.8848 33.854 28.8848 35.5671 30.5234C36.3827 31.3335 36.8403 32.4364 36.8377 33.5861C36.8377 34.1844 36.3527 34.6694 35.7544 34.6694C35.1561 34.6694 34.6711 34.1844 34.6711 33.5861C34.6721 33.0113 34.4431 32.4601 34.0353 32.0552C33.1793 31.2353 31.8294 31.2353 30.9735 32.0552C30.3531 32.6742 30.1671 33.6062 30.5024 34.4159C30.8376 35.2257 31.628 35.7534 32.5044 35.7527C33.1027 35.7527 33.5877 36.2377 33.5877 36.8361C33.5877 37.4344 33.1027 37.9194 32.5044 37.9194Z" fill="#05092B"/>
<path d="M32.5042 44.4167C30.1121 44.414 28.1736 42.4755 28.1709 40.0833C28.1709 39.485 28.6559 39 29.2542 39C29.8525 39 30.3376 39.485 30.3376 40.0833C30.3385 41.2785 31.3079 42.2469 32.5031 42.2465C33.6983 42.2462 34.6671 41.2774 34.6674 40.0822C34.6678 38.887 33.6994 37.9176 32.5042 37.9167C31.9059 37.9167 31.4209 37.4316 31.4209 36.8333C31.4209 36.235 31.9059 35.75 32.5042 35.75C34.8975 35.75 36.8376 37.6901 36.8376 40.0833C36.8376 42.4766 34.8975 44.4167 32.5042 44.4167Z" fill="#05092B"/>
<path d="M43.3333 44.4167H40.0833C39.485 44.4167 39 43.9316 39 43.3333V30.3333C39 29.735 39.485 29.25 40.0833 29.25H43.3333C45.7255 29.2527 47.664 31.1912 47.6667 33.5833V40.0833C47.664 42.4755 45.7255 44.414 43.3333 44.4167ZM41.1667 42.25H43.3333C44.5295 42.2488 45.4988 41.2795 45.5 40.0833V33.5833C45.4988 32.3872 44.5295 31.4179 43.3333 31.4167H41.1667V42.25Z" fill="#05092B"/>
</svg>
