<svg width="65" height="65" viewBox="0 0 65 65" fill="none" xmlns="http://www.w3.org/2000/svg">
<path d="M47.979 27.0829H42.2482C41.6498 27.0829 41.1648 26.5978 41.1648 25.9995C41.1648 25.4012 41.6498 24.9162 42.2482 24.9162H47.979C50.9124 24.8975 53.2805 22.5142 53.2805 19.5808C53.2805 16.6473 50.9124 14.2641 47.979 14.2454C47.5016 14.248 47.0692 13.9641 46.8819 13.5249C45.8838 10.7757 43.2675 8.94882 40.3428 8.95869C40.3057 8.95837 40.2687 8.95996 40.2317 8.96346C39.7427 9.01762 39.2788 8.73481 39.1029 8.27533C37.7003 4.5946 34.1691 2.16352 30.2302 2.1668C26.2912 2.17007 22.7641 4.60701 21.3676 8.29006C21.1936 8.74594 20.7377 9.03057 20.2517 8.98675C20.0581 8.96823 19.8645 8.95923 19.6614 8.95923C15.2549 8.95923 11.6827 12.5314 11.6827 16.938C11.6827 21.3445 15.2549 24.9167 19.6614 24.9167H22.7482C23.3465 24.9167 23.8315 25.4018 23.8315 26.0001C23.8315 26.5984 23.3465 27.0834 22.7482 27.0834H19.6607C14.0575 27.0875 9.51191 22.5486 9.50782 16.9454C9.50372 11.3422 14.0427 6.79667 19.6458 6.79257C21.546 2.65167 25.6853 -0.00193267 30.2414 1.05614e-06C34.7974 0.00193478 38.9345 2.65905 40.8312 6.80156C44.2283 6.96173 47.2483 9.01459 48.6472 12.1146C52.639 12.4766 55.6406 15.9136 55.4618 19.9178C55.2831 23.9221 51.9872 27.078 47.979 27.0829Z" fill="#05092B"/>
<path d="M25.1218 53.0847H19.4993C18.901 53.0847 18.416 52.5996 18.416 52.0013C18.416 51.403 18.901 50.918 19.4993 50.918H25.1218C26.8134 50.8864 28.1681 49.5061 28.1681 47.8142C28.1681 46.1224 26.8134 44.7421 25.1218 44.7105C24.6463 44.7124 24.2182 44.423 24.0427 43.9811C23.4914 42.3644 21.9765 41.2744 20.2685 41.2655C19.7494 41.3509 19.241 41.0629 19.0476 40.5737C18.2315 38.3281 16.0971 36.8336 13.7079 36.8348C11.3186 36.836 9.1857 38.3326 8.37186 40.579C8.20476 41.0303 7.76023 41.3176 7.28007 41.2846C7.12667 41.2737 7.02192 41.2655 6.91087 41.2655C4.27876 41.3122 2.16942 43.4592 2.16942 46.0917C2.16942 48.7243 4.27876 50.8713 6.91087 50.918H8.66598C9.26429 50.918 9.74932 51.403 9.74932 52.0013C9.74932 52.5996 9.26429 53.0847 8.66598 53.0847H6.91098C3.13181 53.0391 0.0721703 50 0.00125483 46.2212C-0.0696606 42.4424 2.87379 39.2906 6.6486 39.1034C7.95678 36.3888 10.7054 34.6645 13.7187 34.668C16.7321 34.6715 19.4767 36.4022 20.7785 39.1198C22.9525 39.3081 24.8659 40.6294 25.8121 42.5957C28.5378 42.9878 30.5025 45.4119 30.3216 48.1597C30.1408 50.9075 27.8754 53.0532 25.1218 53.0847Z" fill="#05092B"/>
<path d="M59.7859 53.0847H56.33C55.7317 53.0847 55.2467 52.5996 55.2467 52.0013C55.2467 51.403 55.7317 50.918 56.33 50.918H59.7859C61.4774 50.8864 62.8322 49.5061 62.8322 47.8142C62.8322 46.1224 61.4774 44.7421 59.7859 44.7105C59.3104 44.7124 58.8823 44.423 58.7068 43.9811C58.1555 42.3644 56.6406 41.2744 54.9325 41.2655C54.4135 41.3509 53.9051 41.0629 53.7116 40.5737C52.8956 38.3281 50.7612 36.8336 48.3719 36.8348C45.9827 36.836 43.8498 38.3326 43.0359 40.579C42.8686 41.0301 42.4242 41.3173 41.9441 41.2846C41.7907 41.2737 41.686 41.2655 41.5749 41.2655C38.9428 41.3122 36.8335 43.4592 36.8335 46.0917C36.8335 48.7243 38.9428 50.8713 41.5749 50.918H43.33C43.9284 50.918 44.4134 51.403 44.4134 52.0013C44.4134 52.5996 43.9284 53.0847 43.33 53.0847H41.575C37.7959 53.0391 34.7362 50 34.6653 46.2212C34.5944 42.4424 37.5379 39.2906 41.3127 39.1034C42.6208 36.3888 45.3694 34.6645 48.3828 34.668C51.3962 34.6715 54.1407 36.4022 55.4426 39.1198C57.6166 39.3081 59.53 40.6294 60.4762 42.5957C63.2019 42.9878 65.1665 45.4119 64.9857 48.1597C64.8049 50.9075 62.5395 53.0532 59.7859 53.0847Z" fill="#05092B"/>
<path d="M20.582 64.9987H9.7487C8.55265 64.9973 7.5834 64.0281 7.58203 62.832V48.7487C7.5834 47.5527 8.55265 46.5834 9.7487 46.582H15.1654C15.7637 46.582 16.2487 47.0671 16.2487 47.6654C16.2487 48.2637 15.7637 48.7487 15.1654 48.7487H9.7487V62.832H20.582V54.1654C20.582 53.5671 21.0671 53.082 21.6654 53.082C22.2637 53.082 22.7487 53.5671 22.7487 54.1654V62.832C22.7473 64.0281 21.7781 64.9973 20.582 64.9987Z" fill="#05092B"/>
<path d="M21.6654 55.2485H16.2487C15.0527 55.2471 14.0834 54.2779 14.082 53.0818V47.6652C14.0821 47.2271 14.3461 46.8322 14.7508 46.6645C15.1556 46.4969 15.6215 46.5895 15.9313 46.8992L22.4313 53.3992C22.741 53.7091 22.8337 54.175 22.666 54.5797C22.4984 54.9845 22.1035 55.2484 21.6654 55.2485ZM16.2487 50.2804V53.0818H19.0501L16.2487 50.2804Z" fill="#05092B"/>
<path d="M56.3333 64.9987H43.3333C42.735 64.9987 42.25 64.5137 42.25 63.9154V47.6654C42.25 47.0671 42.735 46.582 43.3333 46.582H56.3333C56.9316 46.582 57.4167 47.0671 57.4167 47.6654V63.9154C57.4167 64.5137 56.9316 64.9987 56.3333 64.9987ZM44.4167 62.832H55.25V48.7487H44.4167V62.832Z" fill="#05092B"/>
<path d="M56.3333 59.5846H43.3333C42.735 59.5846 42.25 59.0996 42.25 58.5013C42.25 57.903 42.735 57.418 43.3333 57.418H56.3333C56.9316 57.418 57.4167 57.903 57.4167 58.5013C57.4167 59.0996 56.9316 59.5846 56.3333 59.5846Z" fill="#05092B"/>
<path d="M46.5833 54.1667H43.3333C42.735 54.1667 42.25 53.6816 42.25 53.0833C42.25 52.485 42.735 52 43.3333 52H46.5833C47.1816 52 47.6667 52.485 47.6667 53.0833C47.6667 53.6816 47.1816 54.1667 46.5833 54.1667Z" fill="#05092B"/>
<path d="M56.332 54.1667H50.9154C50.3171 54.1667 49.832 53.6816 49.832 53.0833C49.832 52.485 50.3171 52 50.9154 52H56.332C56.9303 52 57.4154 52.485 57.4154 53.0833C57.4154 53.6816 56.9303 54.1667 56.332 54.1667Z" fill="#05092B"/>
<path d="M41.1641 30.3346H23.8307C22.6347 30.3333 21.6654 29.364 21.6641 28.168V14.0846C21.6654 12.8886 22.6347 11.9193 23.8307 11.918H29.8821C30.4564 11.9195 31.0069 12.1476 31.4141 12.5527L34.0293 15.168H41.1641C42.3601 15.1693 43.3294 16.1386 43.3307 17.3346V28.168C43.3294 29.364 42.3601 30.3333 41.1641 30.3346ZM23.8307 14.0846V28.168H41.1651L41.1641 17.3346H34.0293C33.455 17.3331 32.9045 17.105 32.4974 16.6999L29.8821 14.0846H23.8307Z" fill="#05092B"/>
<path d="M32.4974 41.1667C30.1042 41.1667 28.1641 39.2266 28.1641 36.8333C28.1641 34.4401 30.1042 32.5 32.4974 32.5C34.8906 32.5 36.8307 34.4401 36.8307 36.8333C36.8282 39.2255 34.8896 41.1642 32.4974 41.1667ZM32.4974 34.6667C31.3008 34.6667 30.3307 35.6367 30.3307 36.8333C30.3307 38.03 31.3008 39 32.4974 39C33.694 39 34.6641 38.03 34.6641 36.8333C34.6627 35.6373 33.6934 34.668 32.4974 34.6667Z" fill="#05092B"/>
<path d="M32.4974 34.668C31.8991 34.668 31.4141 34.1829 31.4141 33.5846V29.2513C31.4141 28.653 31.8991 28.168 32.4974 28.168C33.0957 28.168 33.5807 28.653 33.5807 29.2513V33.5846C33.5807 34.1829 33.0957 34.668 32.4974 34.668Z" fill="#05092B"/>
<path d="M25.6614 44.7512C25.2232 44.7512 24.8282 44.4872 24.6606 44.0824C24.4929 43.6776 24.5856 43.2117 24.8954 42.9019L29.4341 38.3627C29.8592 37.9521 30.5348 37.958 30.9527 38.3759C31.3706 38.7938 31.3765 39.4695 30.9659 39.8945L26.4274 44.4337C26.2245 44.6372 25.9488 44.7515 25.6614 44.7512Z" fill="#05092B"/>
<path d="M37.5266 42.9418C37.2392 42.9422 36.9636 42.828 36.7607 42.6245L34.0307 39.8945C33.6201 39.4695 33.626 38.7938 34.0439 38.3759C34.4617 37.958 35.1374 37.9521 35.5625 38.3627L38.2925 41.0927C38.6022 41.4025 38.6947 41.8684 38.5271 42.2731C38.3595 42.6778 37.9646 42.9417 37.5266 42.9418Z" fill="#05092B"/>
</svg>
