<svg width="65" height="65" viewBox="0 0 65 65" fill="none" xmlns="http://www.w3.org/2000/svg">
<rect width="65" height="65" fill="#F5F5F5"/>
<g id="06_Service" clip-path="url(#clip0_0_1)">
<rect width="1920" height="2535" transform="translate(-92 -856)" fill="white"/>
<g id="Service">
<g id="Group 163081">
<g id="Group 163080">
<g id="001-laptop" clip-path="url(#clip1_0_1)">
<g id="Page-1">
<g id="001---Global-Connection">
<path id="Shape" d="M61.7474 55.2513H3.2474C2.64909 55.2513 2.16406 54.7663 2.16406 54.168V15.168C2.16603 13.3739 3.61995 11.9199 5.41406 11.918H15.2616C15.8599 11.918 16.3449 12.403 16.3449 13.0013C16.3449 13.5996 15.8599 14.0846 15.2616 14.0846H5.41406C4.81608 14.0854 4.33151 14.57 4.33073 15.168V53.0846H60.6641V15.168C60.6633 14.57 60.1787 14.0854 59.5807 14.0846H49.7332C49.1349 14.0846 48.6499 13.5996 48.6499 13.0013C48.6499 12.403 49.1349 11.918 49.7332 11.918H59.5807C61.3748 11.9199 62.8288 13.3739 62.8307 15.168V54.168C62.8307 54.7663 62.3457 55.2513 61.7474 55.2513Z" fill="black"/>
<path id="Shape_2" d="M57.4167 55.25H7.58333C6.98502 55.25 6.5 54.765 6.5 54.1667V18.4167C6.50119 17.2205 7.47054 16.2512 8.66667 16.25H14.2133C14.8116 16.25 15.2967 16.735 15.2967 17.3333C15.2967 17.9316 14.8116 18.4167 14.2133 18.4167H8.66667V53.0833H56.3333V18.4167H50.7867C50.1884 18.4167 49.7033 17.9316 49.7033 17.3333C49.7033 16.735 50.1884 16.25 50.7867 16.25H56.3333C57.5295 16.2512 58.4988 17.2205 58.5 18.4167V54.1667C58.5 54.765 58.015 55.25 57.4167 55.25Z" fill="black"/>
<path id="Shape_3" d="M59.5833 64.9987H5.41667C2.42658 64.9952 0.00352207 62.5721 0 59.582V55.2487C0.00119433 54.0526 0.970545 53.0832 2.16667 53.082H62.8333C64.0295 53.0832 64.9988 54.0526 65 55.2487V59.582C64.9965 62.5721 62.5734 64.9952 59.5833 64.9987ZM2.16667 55.2487V59.582C2.16864 61.3761 3.62256 62.8301 5.41667 62.832H59.5833C61.3774 62.8301 62.8314 61.3761 62.8333 59.582V55.2487H2.16667Z" fill="black"/>
<path id="Shape_4" d="M39.8267 59.582H25.1709C23.9389 59.586 22.8117 58.8894 22.2643 57.7856L20.6964 54.6499C20.5285 54.3141 20.5464 53.9152 20.7438 53.5958C20.9412 53.2764 21.29 53.082 21.6655 53.082H43.3322C43.7077 53.082 44.0564 53.2764 44.2538 53.5958C44.4512 53.9152 44.4692 54.3141 44.3012 54.6499L42.7334 57.7856C42.1859 58.8894 41.0587 59.586 39.8267 59.582ZM23.4185 55.2487L24.2024 56.8166C24.3848 57.1844 24.7604 57.4166 25.1709 57.4154H39.8267C40.2373 57.4166 40.6128 57.1844 40.7952 56.8166L41.5791 55.2487H23.4185Z" fill="black"/>
<path id="Shape_5" d="M14.0833 59.5846H1.08333C0.485025 59.5846 0 59.0996 0 58.5013C0 57.903 0.485025 57.418 1.08333 57.418H14.0833C14.6816 57.418 15.1667 57.903 15.1667 58.5013C15.1667 59.0996 14.6816 59.5846 14.0833 59.5846Z" fill="black"/>
<path id="Shape_6" d="M19.5026 59.5846H18.4193C17.821 59.5846 17.3359 59.0996 17.3359 58.5013C17.3359 57.903 17.821 57.418 18.4193 57.418H19.5026C20.1009 57.418 20.5859 57.903 20.5859 58.5013C20.5859 59.0996 20.1009 59.5846 19.5026 59.5846Z" fill="black"/>
<path id="Shape_7" d="M63.9193 59.5846H50.9193C50.321 59.5846 49.8359 59.0996 49.8359 58.5013C49.8359 57.903 50.321 57.418 50.9193 57.418H63.9193C64.5176 57.418 65.0026 57.903 65.0026 58.5013C65.0026 59.0996 64.5176 59.5846 63.9193 59.5846Z" fill="black"/>
<path id="Shape_8" d="M46.5807 59.5846H45.4974C44.8991 59.5846 44.4141 59.0996 44.4141 58.5013C44.4141 57.903 44.8991 57.418 45.4974 57.418H46.5807C47.179 57.418 47.6641 57.903 47.6641 58.5013C47.6641 59.0996 47.179 59.5846 46.5807 59.5846Z" fill="black"/>
<path id="Shape_9" d="M32.5 39C21.7304 39 13 30.2696 13 19.5C13 8.73045 21.7304 0 32.5 0C43.2696 0 52 8.73045 52 19.5C51.9881 30.2646 43.2646 38.9881 32.5 39ZM32.5 2.16667C22.9271 2.16667 15.1667 9.92706 15.1667 19.5C15.1667 29.0729 22.9271 36.8333 32.5 36.8333C42.0729 36.8333 49.8333 29.0729 49.8333 19.5C49.8224 9.93159 42.0684 2.17759 32.5 2.16667Z" fill="black"/>
<path id="Shape_10" d="M57.4167 48.7487H36.8333C36.235 48.7487 35.75 48.2637 35.75 47.6654C35.75 47.0671 36.235 46.582 36.8333 46.582H57.4167C58.015 46.582 58.5 47.0671 58.5 47.6654C58.5 48.2637 58.015 48.7487 57.4167 48.7487Z" fill="black"/>
<path id="Shape_11" d="M28.1667 48.7487H7.58333C6.98502 48.7487 6.5 48.2637 6.5 47.6654C6.5 47.0671 6.98502 46.582 7.58333 46.582H28.1667C28.765 46.582 29.25 47.0671 29.25 47.6654C29.25 48.2637 28.765 48.7487 28.1667 48.7487Z" fill="black"/>
<path id="Shape_12" d="M35.7526 50.918H29.2526C28.0565 50.9168 27.0871 49.9474 27.0859 48.7513V46.5846C27.0871 45.3885 28.0565 44.4192 29.2526 44.418H35.7526C36.9487 44.4192 37.9181 45.3885 37.9193 46.5846V48.7513C37.9181 49.9474 36.9487 50.9168 35.7526 50.918ZM29.2526 46.5846V48.7513H35.7542L35.7526 46.5846H29.2526Z" fill="black"/>
<path id="Shape_13" d="M32.4974 46.582C31.8991 46.582 31.4141 46.097 31.4141 45.4987V37.9154C31.4141 37.3171 31.8991 36.832 32.4974 36.832C33.0957 36.832 33.5807 37.3171 33.5807 37.9154V45.4987C33.5807 46.097 33.0957 46.582 32.4974 46.582Z" fill="black"/>
<path id="Shape_14" d="M44.2774 34.7428C44.0423 34.7431 43.8136 34.6663 43.6263 34.5244L43.476 34.4112C42.087 33.4934 40.8884 32.3158 39.9462 30.9432C39.0328 29.5298 38.9006 27.749 39.5955 26.2163C39.9812 25.5166 40.4724 24.8806 41.0517 24.3305C41.4388 23.959 41.7818 23.5442 42.0742 23.0943C43.8864 19.9281 44.1402 16.1039 42.7624 12.7259C42.096 11.2813 40.4233 10.3059 37.5013 9.66007C37.0397 9.56582 36.5731 9.49764 36.1038 9.45587C35.2362 9.39711 34.38 9.22461 33.5573 8.9428C30.7613 7.88221 29.7826 5.17279 30.6496 0.890788C30.7206 0.505792 30.9938 0.189053 31.3642 0.0622894C31.7345 -0.0644739 32.1445 0.0184622 32.4365 0.279226C32.7285 0.539991 32.8571 0.93801 32.7729 1.32033C31.9292 5.48912 33.2558 6.51114 34.327 6.91739C34.9792 7.12938 35.6553 7.25855 36.3397 7.30187C36.8885 7.35198 37.434 7.43325 37.9737 7.54529C40.2583 8.05045 43.4496 9.04431 44.7313 11.8209C46.3871 15.8409 46.0989 20.3994 43.95 24.1788C43.5744 24.7806 43.1269 25.3344 42.6175 25.8281C42.1921 26.2274 41.8264 26.6858 41.5315 27.1892C41.1776 28.0586 41.2793 29.047 41.8029 29.8261C42.6087 30.9545 43.6182 31.9226 44.7794 32.6804L44.931 32.7947C45.303 33.0753 45.4538 33.5623 45.3057 34.004C45.1576 34.4457 44.7433 34.7432 44.2774 34.7428Z" fill="black"/>
<path id="Shape_15" d="M34.874 23.4108C34.5974 23.4116 34.3216 23.3819 34.0515 23.3224C32.3819 22.8306 31.2125 21.328 31.1459 19.5888C30.9835 18.0533 31.4369 16.516 32.4064 15.3142C33.6547 13.9613 35.6075 13.5174 37.3179 14.1976C38.4279 14.7491 39.2682 15.7253 39.6485 16.9049C40.0472 18.1205 39.9381 19.4456 39.3459 20.5797C38.8099 21.5978 37.9613 22.4169 36.9249 22.9166C36.2874 23.2342 35.5862 23.4032 34.874 23.4108ZM35.7658 16.0136C35.1136 16.0274 34.4916 16.2911 34.0282 16.7503C33.4603 17.4998 33.2006 18.4381 33.3023 19.3729C33.3818 20.1685 33.7898 21.044 34.5227 21.2074C35.0204 21.291 35.5317 21.2069 35.9763 20.9684C36.5932 20.6742 37.0994 20.1899 37.4205 19.5867C37.7449 18.9668 37.8056 18.2423 37.5888 17.5771C37.3864 16.9494 36.9393 16.4299 36.3488 16.1363C36.1665 16.0512 35.967 16.0089 35.7658 16.0136Z" fill="black"/>
<path id="Shape_16" d="M28.6011 38.59C28.249 38.5895 27.9191 38.418 27.7163 38.1302C27.5134 37.8424 27.4629 37.4741 27.5807 37.1423C28.6429 34.1631 28.6255 31.5273 27.5332 30.0911C27.1865 29.634 26.764 29.5098 25.9177 29.2929L25.4882 29.1808C23.2714 28.5552 21.6347 26.6776 21.3173 24.3962C20.8315 21.8162 21.8459 19.1833 23.9373 17.5962C24.2579 17.3764 24.59 17.1739 24.9323 16.9896C25.2877 16.8059 25.6253 16.5899 25.941 16.3442C26.51 15.8242 26.854 15.103 26.9003 14.3336C26.9693 13.7563 26.8022 13.1757 26.4369 12.7234C25.7947 11.9997 24.7986 11.9955 23.2319 12.0734C22.7319 12.0978 22.213 12.1227 21.7132 12.1004C19.8637 12.0062 18.0561 11.5147 16.4136 10.6593C15.8822 10.3841 15.6745 9.73019 15.9497 9.19878C16.225 8.66736 16.8789 8.45967 17.4103 8.73489C18.7747 9.44744 20.2768 9.8572 21.814 9.9362C22.2319 9.95581 22.673 9.93198 23.1232 9.90977C24.7081 9.83253 26.6784 9.73253 28.057 11.2856C28.8138 12.1739 29.1763 13.3321 29.0609 14.4934C28.972 15.8449 28.3521 17.1064 27.3364 18.0025C26.9181 18.3381 26.4679 18.632 25.9923 18.88C25.7156 19.0282 25.4468 19.1909 25.1872 19.3675C23.7737 20.4666 23.1021 22.2698 23.4523 24.0258C23.642 25.4722 24.6629 26.6727 26.0601 27.0923L26.4551 27.1954C27.5525 27.3624 28.5501 27.927 29.2582 28.7818C31.473 31.6943 30.2501 36.1086 29.6216 37.8717C29.4671 38.3025 29.0588 38.5899 28.6011 38.59Z" fill="black"/>
</g>
</g>
</g>
</g>
</g>
</g>
</g>
<defs>
<clipPath id="clip0_0_1">
<rect width="1920" height="2535" fill="white" transform="translate(-92 -856)"/>
</clipPath>
<clipPath id="clip1_0_1">
<rect width="65" height="65" fill="white"/>
</clipPath>
</defs>
</svg>
