<svg width="65" height="65" viewBox="0 0 65 65" fill="none" xmlns="http://www.w3.org/2000/svg">
<g clip-path="url(#clip0_36_156)">
<path d="M43.3307 49.832H21.6641C19.87 49.8301 18.416 48.3761 18.4141 46.582V40.082C18.416 38.2879 19.87 36.834 21.6641 36.832H43.3307C45.1248 36.834 46.5788 38.2879 46.5807 40.082V46.582C46.5788 48.3761 45.1248 49.8301 43.3307 49.832ZM21.6641 38.9987C21.0661 38.9995 20.5815 39.484 20.5807 40.082V46.582C20.5815 47.18 21.0661 47.6646 21.6641 47.6654H43.3307C43.9287 47.6646 44.4133 47.18 44.4141 46.582V40.082C44.4133 39.484 43.9287 38.9995 43.3307 38.9987H21.6641Z" fill="#05092B"/>
<path d="M43.3307 39H21.6641C19.87 38.998 18.416 37.5441 18.4141 35.75V29.25C18.416 27.4559 19.87 26.002 21.6641 26H43.3307C45.1248 26.002 46.5788 27.4559 46.5807 29.25V35.75C46.5788 37.5441 45.1248 38.998 43.3307 39ZM21.6641 28.1667C21.0661 28.1674 20.5815 28.652 20.5807 29.25V35.75C20.5815 36.348 21.0661 36.8326 21.6641 36.8333H43.3307C43.9287 36.8326 44.4133 36.348 44.4141 35.75V29.25C44.4133 28.652 43.9287 28.1674 43.3307 28.1667H21.6641Z" fill="#05092B"/>
<path d="M43.3307 28.168H21.6641C19.87 28.166 18.416 26.7121 18.4141 24.918V18.418C18.416 16.6239 19.87 15.1699 21.6641 15.168H43.3307C45.1248 15.1699 46.5788 16.6239 46.5807 18.418V24.918C46.5788 26.7121 45.1248 28.166 43.3307 28.168ZM21.6641 17.3346C21.0661 17.3354 20.5815 17.82 20.5807 18.418V24.918C20.5815 25.516 21.0661 26.0005 21.6641 26.0013H43.3307C43.9287 26.0005 44.4133 25.516 44.4141 24.918V18.418C44.4133 17.82 43.9287 17.3354 43.3307 17.3346H21.6641Z" fill="#05092B"/>
<path d="M24.9167 44.4167H23.8333C23.235 44.4167 22.75 43.9316 22.75 43.3333C22.75 42.735 23.235 42.25 23.8333 42.25H24.9167C25.515 42.25 26 42.735 26 43.3333C26 43.9316 25.515 44.4167 24.9167 44.4167Z" fill="#05092B"/>
<path d="M41.1641 44.4167H29.2474C28.6491 44.4167 28.1641 43.9316 28.1641 43.3333C28.1641 42.735 28.6491 42.25 29.2474 42.25H41.1641C41.7624 42.25 42.2474 42.735 42.2474 43.3333C42.2474 43.9316 41.7624 44.4167 41.1641 44.4167Z" fill="#05092B"/>
<path d="M24.9167 33.5846H23.8333C23.235 33.5846 22.75 33.0996 22.75 32.5013C22.75 31.903 23.235 31.418 23.8333 31.418H24.9167C25.515 31.418 26 31.903 26 32.5013C26 33.0996 25.515 33.5846 24.9167 33.5846Z" fill="#05092B"/>
<path d="M41.1641 33.5846H29.2474C28.6491 33.5846 28.1641 33.0996 28.1641 32.5013C28.1641 31.903 28.6491 31.418 29.2474 31.418H41.1641C41.7624 31.418 42.2474 31.903 42.2474 32.5013C42.2474 33.0996 41.7624 33.5846 41.1641 33.5846Z" fill="#05092B"/>
<path d="M24.9167 22.7487H23.8333C23.235 22.7487 22.75 22.2637 22.75 21.6654C22.75 21.0671 23.235 20.582 23.8333 20.582H24.9167C25.515 20.582 26 21.0671 26 21.6654C26 22.2637 25.515 22.7487 24.9167 22.7487Z" fill="#05092B"/>
<path d="M41.1641 22.7487H29.2474C28.6491 22.7487 28.1641 22.2637 28.1641 21.6654C28.1641 21.0671 28.6491 20.582 29.2474 20.582H41.1641C41.7624 20.582 42.2474 21.0671 42.2474 21.6654C42.2474 22.2637 41.7624 22.7487 41.1641 22.7487Z" fill="#05092B"/>
<path d="M6.5 39C2.91015 39 0 36.0899 0 32.5C0 28.9101 2.91015 26 6.5 26C10.0899 26 13 28.9101 13 32.5C12.9961 36.0882 10.0882 38.9961 6.5 39ZM6.5 28.1667C4.10677 28.1667 2.16667 30.1068 2.16667 32.5C2.16667 34.8932 4.10677 36.8333 6.5 36.8333C8.89324 36.8333 10.8333 34.8932 10.8333 32.5C10.8306 30.1079 8.89212 28.1694 6.5 28.1667Z" fill="#05092B"/>
<path d="M32.5 65C28.9101 65 26 62.0899 26 58.5C26 54.9101 28.9101 52 32.5 52C36.0899 52 39 54.9101 39 58.5C38.9961 62.0882 36.0882 64.9961 32.5 65ZM32.5 54.1667C30.1068 54.1667 28.1667 56.1068 28.1667 58.5C28.1667 60.8932 30.1068 62.8333 32.5 62.8333C34.8932 62.8333 36.8333 60.8932 36.8333 58.5C36.8306 56.1079 34.8921 54.1694 32.5 54.1667Z" fill="#05092B"/>
<path d="M58.5 39C54.9101 39 52 36.0899 52 32.5C52 28.9101 54.9101 26 58.5 26C62.0899 26 65 28.9101 65 32.5C64.9961 36.0882 62.0882 38.9961 58.5 39ZM58.5 28.1667C56.1068 28.1667 54.1667 30.1068 54.1667 32.5C54.1667 34.8932 56.1068 36.8333 58.5 36.8333C60.8932 36.8333 62.8333 34.8932 62.8333 32.5C62.8306 30.1079 60.8921 28.1694 58.5 28.1667Z" fill="#05092B"/>
<path d="M32.5 13C28.9101 13 26 10.0899 26 6.5C26 2.91015 28.9101 0 32.5 0C36.0899 0 39 2.91015 39 6.5C38.9961 10.0882 36.0882 12.9961 32.5 13ZM32.5 2.16667C30.1068 2.16667 28.1667 4.10677 28.1667 6.5C28.1667 8.89324 30.1068 10.8333 32.5 10.8333C34.8932 10.8333 36.8333 8.89324 36.8333 6.5C36.8306 4.10788 34.8921 2.16935 32.5 2.16667Z" fill="#05092B"/>
<path d="M57.9225 28.1992C57.4098 28.1988 56.9677 27.8389 56.863 27.337C56.0233 23.3042 54.1825 19.5474 51.5101 16.4126C51.2585 16.1184 51.183 15.7124 51.3119 15.3475C51.4409 14.9825 51.7547 14.7141 52.1352 14.6433C52.5158 14.5725 52.9052 14.7101 53.1567 15.0042C56.0661 18.4159 58.0702 22.5049 58.9844 26.8945C59.0431 27.1758 58.9876 27.4688 58.8301 27.7092C58.6727 27.9496 58.4262 28.1175 58.1449 28.1762C58.0718 28.1913 57.9973 28.1991 57.9225 28.1992Z" fill="#05092B"/>
<path d="M52.3366 50.3749C51.9138 50.3746 51.5298 50.1285 51.3531 49.7445C51.1764 49.3604 51.2392 48.9087 51.514 48.5874C54.1863 45.4526 56.027 41.6958 56.8666 37.6631C56.9456 37.2842 57.2208 36.9762 57.5884 36.8551C57.9561 36.7341 58.3603 36.8184 58.649 37.0763C58.9376 37.3341 59.0668 37.7264 58.9878 38.1053C58.0736 42.495 56.0694 46.584 53.1599 49.9957C52.9544 50.2368 52.6533 50.3754 52.3366 50.3749Z" fill="#05092B"/>
<path d="M7.07667 28.1992C7.00203 28.1992 6.92759 28.1915 6.85448 28.1765C6.57319 28.1179 6.32671 27.9499 6.16928 27.7095C6.01184 27.4692 5.95635 27.1761 6.015 26.8948C6.92909 22.5051 8.93311 18.4161 11.8425 15.0042C12.2314 14.5495 12.9153 14.4962 13.37 14.8851C13.8247 15.274 13.878 15.9579 13.4891 16.4126C10.8169 19.5474 8.97617 23.3041 8.1365 27.3369C8.03187 27.839 7.58953 28.1989 7.07667 28.1992Z" fill="#05092B"/>
<path d="M12.666 50.375C12.3492 50.3755 12.0482 50.2369 11.8427 49.9958C8.93335 46.5841 6.92933 42.4951 6.01521 38.1055C5.89309 37.5198 6.26894 36.9459 6.85468 36.8238C7.44043 36.7017 8.01426 37.0775 8.13638 37.6633C8.97616 41.696 10.817 45.4527 13.4893 48.5875C13.7642 48.9089 13.827 49.3608 13.6501 49.7449C13.4731 50.129 13.0889 50.375 12.666 50.375Z" fill="#05092B"/>
<path d="M49.2909 13.7488C49.0329 13.749 48.7833 13.6568 48.5874 13.4888C45.4526 10.8166 41.6958 8.97586 37.6631 8.13618C37.2842 8.05719 36.9762 7.78205 36.8551 7.41441C36.7341 7.04676 36.8184 6.64247 37.0762 6.35382C37.3341 6.06517 37.7264 5.93602 38.1053 6.01502C42.4947 6.92913 46.5835 8.93303 49.9951 11.8422C50.3398 12.137 50.4644 12.6153 50.3073 13.0408C50.1501 13.4663 49.7445 13.7489 49.2909 13.7488Z" fill="#05092B"/>
<path d="M15.7085 13.7493C15.2549 13.7494 14.8493 13.4668 14.6921 13.0413C14.535 12.6158 14.6596 12.1375 15.0043 11.8427C18.4159 8.93343 22.5047 6.92942 26.8941 6.01521C27.4798 5.89309 28.0537 6.26894 28.1758 6.85468C28.2979 7.44043 27.9221 8.01426 27.3363 8.13638C23.3036 8.97616 19.5469 10.817 16.4121 13.4893C16.2162 13.6573 15.9666 13.7496 15.7085 13.7493Z" fill="#05092B"/>
<path d="M27.1168 59.0106C27.0421 59.0106 26.9677 59.003 26.8946 58.9879C22.505 58.0738 18.416 56.0699 15.0042 53.1606C14.7101 52.9091 14.5725 52.5197 14.6433 52.1391C14.7141 51.7586 14.9825 51.4448 15.3475 51.3158C15.7124 51.1869 16.1184 51.2624 16.4126 51.514C19.5474 54.1862 23.3041 56.0269 27.3369 56.8666C27.8804 56.9798 28.2504 57.4855 28.1937 58.0378C28.1371 58.5901 27.6719 59.0102 27.1168 59.0106Z" fill="#05092B"/>
<path d="M37.8834 59.0106C37.3282 59.0102 36.8632 58.5902 36.8065 58.0379C36.7498 57.4856 37.1198 56.9799 37.6633 56.8667C41.6961 56.027 45.4528 54.1863 48.5876 51.514C48.8817 51.2624 49.2877 51.1869 49.6527 51.3158C50.0176 51.4448 50.286 51.7586 50.3568 52.1391C50.4276 52.5197 50.29 52.9091 49.9959 53.1606C46.5842 56.07 42.4952 58.0741 38.1057 58.9883C38.0325 59.0033 37.958 59.0108 37.8834 59.0106Z" fill="#05092B"/>
<path d="M50.8861 17.3638C49.3366 17.3624 48.0038 16.2667 47.7028 14.7467C47.4018 13.2267 48.2164 11.7057 49.6484 11.1138C51.0804 10.5219 52.7311 11.024 53.5911 12.3129C54.4511 13.6019 54.2808 15.3189 53.1845 16.4139C52.5751 17.0233 51.748 17.3655 50.8861 17.3638ZM50.8869 13.0329C50.37 13.033 49.9252 13.3983 49.8246 13.9052C49.7239 14.4122 49.9954 14.9197 50.473 15.1173C50.9506 15.3149 51.5013 15.1475 51.7882 14.7176C52.0752 14.2878 52.0185 13.715 51.6528 13.3498C51.4498 13.1465 51.1741 13.0325 50.8869 13.0329Z" fill="#05092B"/>
<path d="M50.8838 54.1349C49.3339 54.1339 48.0005 53.0382 47.6991 51.5179C47.3976 49.9975 48.2121 48.476 49.6443 47.8837C51.0766 47.2913 52.7278 47.7932 53.5883 49.0824C54.4487 50.3715 54.2787 52.0889 53.1822 53.1844C52.5731 53.7944 51.7459 54.1365 50.8838 54.1349ZM50.8844 49.8037C50.3679 49.8043 49.9238 50.1696 49.8235 50.6762C49.7233 51.1829 49.9949 51.6897 50.4723 51.8869C50.9496 52.084 51.4998 51.9165 51.7863 51.4868C52.0728 51.0571 52.0158 50.4849 51.6503 50.1201C51.4473 49.9169 51.1715 49.803 50.8844 49.8037Z" fill="#05092B"/>
<path d="M14.114 54.1345C12.5642 54.1334 11.2309 53.0378 10.9295 51.5176C10.6281 49.9974 11.4425 48.4759 12.8747 47.8836C14.3068 47.2914 15.9579 47.7932 16.8183 49.0822C17.6787 50.3713 17.5087 52.0885 16.4124 53.1839C15.8034 53.7939 14.9759 54.136 14.114 54.1345ZM14.114 49.8033C13.5974 49.8035 13.1529 50.1687 13.0524 50.6755C12.9519 51.1823 13.2235 51.6894 13.7009 51.8868C14.1784 52.0841 14.7287 51.9166 15.0154 51.4868C15.302 51.057 15.2451 50.4845 14.8794 50.1196C14.6765 49.9165 14.401 49.8027 14.114 49.8033Z" fill="#05092B"/>
<path d="M14.1161 17.3632C12.5668 17.3617 11.2342 16.2661 10.9333 14.7462C10.6323 13.2264 11.4468 11.7056 12.8786 11.1138C14.3105 10.522 15.961 11.0239 16.8209 12.3127C17.6808 13.6015 17.5107 15.3183 16.4145 16.4132C15.8052 17.0226 14.9778 17.3648 14.1161 17.3632ZM14.1161 13.0322C13.5992 13.0321 13.1542 13.3972 13.0534 13.9042C12.9525 14.4112 13.2239 14.9188 13.7015 15.1165C14.1791 15.3142 14.7298 15.147 15.0169 14.7171C15.3039 14.2872 15.2472 13.7144 14.8815 13.3491C14.6785 13.1461 14.4032 13.0321 14.1161 13.0322Z" fill="#05092B"/>
</g>
<defs>
<clipPath id="clip0_36_156">
<rect width="65" height="65" fill="white"/>
</clipPath>
</defs>
</svg>
