<svg width="65" height="65" viewBox="0 0 65 65" fill="none" xmlns="http://www.w3.org/2000/svg">
<g clip-path="url(#clip0_36_109)">
<path d="M54.7083 40.6237H14.0833C6.30532 40.6237 0 34.3184 0 26.5404C0 18.7624 6.30532 12.4571 14.0833 12.4571C14.1754 12.4571 14.2669 12.4576 14.3573 12.4597C16.9407 6.53638 22.7886 2.70703 29.2508 2.70703C35.7129 2.70703 41.5608 6.53638 44.1442 12.4597C49.0484 12.5702 53.4328 15.5442 55.3489 20.06C60.8997 20.4031 65.1738 25.0938 65.0006 30.6525C64.8275 36.2111 60.2697 40.6268 54.7083 40.6237ZM14.0833 14.6237C7.50194 14.6237 2.16667 19.959 2.16667 26.5404C2.16667 33.1218 7.50194 38.4571 14.0833 38.4571H54.7083C59.1957 38.4571 62.8333 34.8194 62.8333 30.3321C62.8333 25.8447 59.1957 22.2071 54.7083 22.2071H54.6C54.1408 22.207 53.7315 21.9175 53.5785 21.4845C52.1201 17.3482 48.1978 14.5929 43.8121 14.6237C43.7062 14.6237 43.601 14.6243 43.4957 14.6316C43.0205 14.6619 42.5803 14.3809 42.4076 13.9371C40.3243 8.47402 35.0817 4.86675 29.2349 4.87335C23.3881 4.87994 18.1536 8.49902 16.0826 13.9668C15.9098 14.4263 15.4491 14.7117 14.9607 14.6619C14.6691 14.6344 14.3763 14.6217 14.0833 14.6237Z" fill="#05092B"/>
<path d="M7.33353 33.0413C7.00653 33.0418 6.69687 32.8942 6.49146 32.6398C4.61463 30.3165 3.90985 27.2595 4.58006 24.349C5.25026 21.4385 7.22107 18.9976 9.92497 17.7291C10.466 17.4735 11.1119 17.7048 11.3675 18.2459C11.6231 18.7869 11.3917 19.4328 10.8507 19.6884C8.20206 20.9448 6.50965 23.6098 6.49882 26.5413C6.49217 28.266 7.08449 29.9395 8.17463 31.2761C8.4374 31.6005 8.49036 32.047 8.31078 32.4239C8.13119 32.8008 7.75102 33.041 7.33353 33.0413Z" fill="#05092B"/>
<path d="M18.419 34.1246C18.0708 34.1241 17.7441 33.9565 17.5405 33.674C17.337 33.3914 17.2815 33.0284 17.3913 32.698L21.7246 19.698C21.9139 19.1304 22.5275 18.8237 23.0951 19.013C23.6628 19.2023 23.9694 19.8159 23.7801 20.3835L19.4468 33.3835C19.2995 33.826 18.8854 34.1246 18.419 34.1246Z" fill="#05092B"/>
<path d="M27.0811 34.1246C26.6147 34.1246 26.2007 33.826 26.0533 33.3835L21.72 20.3835C21.5307 19.8159 21.8374 19.2023 22.405 19.013C22.9726 18.8237 23.5862 19.1304 23.7755 19.698L28.1089 32.698C28.2187 33.0284 28.1631 33.3914 27.9596 33.674C27.7561 33.9565 27.4293 34.1241 27.0811 34.1246Z" fill="#05092B"/>
<path d="M25.2723 28.7057H20.224C19.6256 28.7057 19.1406 28.2207 19.1406 27.6224C19.1406 27.0241 19.6256 26.5391 20.224 26.5391H25.2723C25.8706 26.5391 26.3556 27.0241 26.3556 27.6224C26.3556 28.2207 25.8706 28.7057 25.2723 28.7057Z" fill="#05092B"/>
<path d="M30.3333 34.1237C29.735 34.1237 29.25 33.6387 29.25 33.0404V20.0404C29.25 19.4421 29.735 18.957 30.3333 18.957C30.9316 18.957 31.4167 19.4421 31.4167 20.0404V33.0404C31.4167 33.6387 30.9316 34.1237 30.3333 34.1237Z" fill="#05092B"/>
<path d="M34.6667 27.6237H30.3333C29.735 27.6237 29.25 27.1387 29.25 26.5404V20.0404C29.25 19.4421 29.735 18.957 30.3333 18.957H34.6667C37.0599 18.957 39 20.8971 39 23.2904C39 25.6836 37.0599 27.6237 34.6667 27.6237ZM31.4167 25.457H34.6667C35.8633 25.457 36.8333 24.487 36.8333 23.2904C36.8333 22.0937 35.8633 21.1237 34.6667 21.1237H31.4167V25.457Z" fill="#05092B"/>
<path d="M43.3333 34.1237C42.735 34.1237 42.25 33.6387 42.25 33.0404V20.0404C42.25 19.4421 42.735 18.957 43.3333 18.957C43.9316 18.957 44.4167 19.4421 44.4167 20.0404V33.0404C44.4167 33.6387 43.9316 34.1237 43.3333 34.1237Z" fill="#05092B"/>
<path d="M46.5833 21.1237H40.0833C39.485 21.1237 39 20.6387 39 20.0404C39 19.4421 39.485 18.957 40.0833 18.957H46.5833C47.1816 18.957 47.6667 19.4421 47.6667 20.0404C47.6667 20.6387 47.1816 21.1237 46.5833 21.1237Z" fill="#05092B"/>
<path d="M46.5833 34.1237H40.0833C39.485 34.1237 39 33.6387 39 33.0404C39 32.4421 39.485 31.957 40.0833 31.957H46.5833C47.1816 31.957 47.6667 32.4421 47.6667 33.0404C47.6667 33.6387 47.1816 34.1237 46.5833 34.1237Z" fill="#05092B"/>
<path d="M26.0514 62.2912C25.7782 62.291 25.508 62.2346 25.2574 62.1257L18.4796 59.3158C17.9801 59.1095 17.5841 58.7114 17.3805 58.2108C17.1793 57.7167 17.1881 57.162 17.4048 56.6746L19.0189 52.7724C17.4305 51.5643 16.0131 50.1464 14.8056 48.5575L10.8685 50.1836C10.3781 50.3885 9.82581 50.3876 9.33609 50.181C8.84665 49.979 8.45714 49.5914 8.25276 49.103L5.44584 42.2934C5.02062 41.2836 5.48987 40.1198 6.49668 39.6873L10.3355 38.1051C10.6935 37.9577 11.1029 38.0124 11.4096 38.2488C11.7163 38.4851 11.8735 38.8671 11.8222 39.2509C11.7708 39.6346 11.5187 39.9618 11.1606 40.1092L7.50862 41.6132L10.1915 48.1191L14.7645 46.2306C15.2331 46.0376 15.773 46.195 16.0645 46.6098C17.3999 48.5173 19.0591 50.1763 20.9669 51.5115C21.3833 51.8026 21.5413 52.3441 21.3467 52.8134L19.4593 57.3763L25.9604 60.0714L27.8494 55.5058C28.0437 55.0358 28.5388 54.7643 29.0395 54.8531C31.3285 55.2609 33.6718 55.2577 35.9596 54.8435C36.4605 54.7542 36.9563 55.0246 37.1524 55.4942L39.0514 60.0676L45.5435 57.3757L43.655 52.8017C43.4608 52.3309 43.6206 51.7885 44.0391 51.4983C45.9474 50.1698 47.6059 48.5144 48.9379 46.6085C49.2291 46.1934 49.7696 46.0364 50.2379 46.2308L54.8096 48.1224L57.5071 41.6177L54.8993 40.5322C54.41 40.3491 54.1212 39.8427 54.2129 39.3284C54.3045 38.814 54.7504 38.4385 55.2728 38.4357C55.4191 38.4356 55.5641 38.4638 55.6997 38.5187L58.4839 39.6778C58.9793 39.8802 59.3718 40.2744 59.572 40.7707C59.7726 41.2617 59.7713 41.812 59.5683 42.302L56.7499 49.0988C56.5466 49.5958 56.1518 49.9901 55.6546 50.1929C55.1574 50.3957 54.5995 50.3899 54.1066 50.1769L50.1957 48.5581C48.9904 50.146 47.5733 51.5615 45.9841 52.7651L47.608 56.6991C47.8168 57.1804 47.8218 57.7258 47.6217 58.2109C47.4177 58.7129 47.0202 59.1117 46.5189 59.3175L39.7306 62.1321C39.239 62.338 38.6854 62.3387 38.1932 62.1341C37.701 61.9294 37.3112 61.5363 37.1106 61.0425L35.4797 57.1143C33.5048 57.3898 31.5014 57.3926 29.5256 57.1228L27.9017 61.0472C27.5939 61.7982 26.863 62.2893 26.0514 62.2912Z" fill="#05092B"/>
<path d="M32.4997 50.3749C25.7742 50.3482 19.7526 46.2018 17.3288 39.9282C17.1866 39.5658 17.2498 39.1549 17.4944 38.852C17.739 38.5491 18.1273 38.4007 18.5116 38.4634C18.8958 38.526 19.2169 38.79 19.3526 39.155C21.434 44.6068 26.6641 48.2084 32.4997 48.2084C38.3352 48.2084 43.5653 44.6068 45.6467 39.155C45.7824 38.79 46.1035 38.526 46.4877 38.4634C46.872 38.4007 47.2603 38.5491 47.5049 38.852C47.7495 39.1549 47.8127 39.5658 47.6705 39.9282C45.2467 46.2018 39.2251 50.3482 32.4997 50.3749Z" fill="#05092B"/>
<path d="M20.5831 15.7063C20.2349 15.7058 19.9081 15.5381 19.7046 15.2556C19.5011 14.9731 19.4455 14.6101 19.5553 14.2796C21.9415 7.12162 27.9136 7.03907 28.1664 7.03907C28.7647 7.0376 29.251 7.52144 29.2524 8.11975C29.2539 8.71805 28.77 9.20427 28.1717 9.20573C27.9617 9.20887 23.4845 9.34375 21.6109 14.9652C21.4635 15.4077 21.0495 15.7062 20.5831 15.7063Z" fill="#05092B"/>
</g>
<defs>
<clipPath id="clip0_36_109">
<rect width="65" height="65" fill="white"/>
</clipPath>
</defs>
</svg>
