<svg width="55" height="65" viewBox="0 0 55 65" fill="none" xmlns="http://www.w3.org/2000/svg">
<path d="M37.921 44.3659H35.7543C35.2503 44.3687 34.7502 44.2776 34.2796 44.0971C32.5584 43.4892 31.4111 41.8579 31.421 40.0326C31.4235 37.6404 33.3621 35.7017 35.7543 35.6992H37.921C40.3142 35.6992 42.2543 37.6393 42.2543 40.0326C42.2543 42.4258 40.3142 44.3659 37.921 44.3659ZM35.7543 37.8659C34.5582 37.8673 33.589 38.8365 33.5876 40.0326C33.5825 40.9459 34.1586 41.7616 35.0211 42.0622C35.2548 42.1531 35.5035 42.1996 35.7543 42.1992H37.921C39.1176 42.1992 40.0876 41.2292 40.0876 40.0326C40.0876 38.8359 39.1176 37.8659 37.921 37.8659H35.7543Z" fill="#05092B"/>
<path d="M36.8701 50.8659H35.7542C33.361 50.8659 31.4209 48.9258 31.4209 46.5326C31.4209 44.1393 33.361 42.1992 35.7542 42.1992H36.8701C39.2633 42.1992 41.2034 44.1393 41.2034 46.5326C41.2034 48.9258 39.2633 50.8659 36.8701 50.8659ZM35.7542 44.3659C34.5576 44.3659 33.5876 45.3359 33.5876 46.5326C33.5876 47.7292 34.5576 48.6992 35.7542 48.6992H36.8701C38.0667 48.6992 39.0367 47.7292 39.0367 46.5326C39.0367 45.3359 38.0667 44.3659 36.8701 44.3659H35.7542Z" fill="#05092B"/>
<path d="M8.66243 28.3596C8.06413 28.3596 7.5791 27.8745 7.5791 27.2762V9.74788C7.58161 7.35569 9.52024 5.41706 11.9124 5.41455H23.1574C23.7557 5.41455 24.2408 5.89958 24.2408 6.49788C24.2408 7.09619 23.7557 7.58122 23.1574 7.58122H11.9124C10.7164 7.58259 9.74714 8.55184 9.74577 9.74788V27.2762C9.74577 27.8745 9.26074 28.3596 8.66243 28.3596Z" fill="#05092B"/>
<path d="M31.4124 54.115H11.9124C9.52027 54.1124 7.58167 52.1738 7.5791 49.7816V36.37C7.5791 35.7716 8.06413 35.2866 8.66243 35.2866C9.26074 35.2866 9.74577 35.7716 9.74577 36.37V49.7816C9.74714 50.9777 10.7164 51.9469 11.9124 51.9483H31.4124C32.6085 51.9469 33.5777 50.9777 33.5791 49.7816V49.5866C33.5791 48.9883 34.0641 48.5033 34.6624 48.5033C35.2607 48.5033 35.7458 48.9883 35.7458 49.5866V49.7816C35.7432 52.1738 33.8046 54.1124 31.4124 54.115Z" fill="#05092B"/>
<path d="M21.6667 65.0024H8.66665C6.87254 65.0004 5.41862 63.5465 5.41665 61.7524V60.6691C5.2346 59.28 4.66802 57.9695 3.78082 56.8853C3.57563 56.5738 3.37359 56.2664 3.18498 55.9612C2.71633 55.2005 2.31323 54.6256 1.96948 54.1342C0.73533 52.6206 0.0519306 50.7328 0.0312926 48.7799C-0.0650158 47.4898 0.0810176 44.7904 0.198451 42.6216C0.252618 41.6324 0.299959 40.7544 0.314801 40.1841C0.335926 39.3457 0.302126 36.6231 0.270384 33.9898L0.253484 32.6659C0.239298 30.8956 0.930202 29.1924 2.1737 27.9322C3.4172 26.6721 5.11107 25.9586 6.88143 25.9492C8.43893 25.9616 9.95691 26.4408 11.2391 27.3251C11.8768 27.7447 12.5692 28.0746 13.2968 28.3053C14.7485 28.704 16.2282 28.9927 17.7233 29.169C19.3475 29.3535 20.5766 30.7244 20.5833 32.3591V32.5511C20.5833 32.6092 20.4967 38.3761 13.0338 38.3936C11.6744 38.4967 6.82693 37.6794 5.53094 35.0875C5.26335 34.5523 5.48028 33.9015 6.01546 33.6339C6.55065 33.3663 7.20143 33.5832 7.46903 34.1184C8.18316 35.5467 11.9974 36.3247 12.8 36.247C12.8653 36.2305 12.9327 36.2237 13 36.2269C18.3553 36.2269 18.4167 32.7013 18.4167 32.5511V32.3591C18.4091 31.8225 18.0014 31.3764 17.4677 31.3207C15.8588 31.1308 14.2667 30.8195 12.7048 30.3897C11.7942 30.109 10.9269 29.7035 10.1276 29.1847C9.18943 28.5015 8.06147 28.128 6.90093 28.1162H6.88608C4.4045 28.134 2.40623 30.1584 2.42058 32.64L2.4364 33.9634C2.47128 36.7389 2.50411 39.3606 2.4819 40.2408C2.46608 40.8258 2.4169 41.7249 2.36273 42.739C2.24844 44.8459 2.10663 47.4681 2.19233 48.6192C2.18869 50.1821 2.73893 51.6958 3.74539 52.8916C4.10939 53.4116 4.5346 54.0199 5.03088 54.8245C5.20746 55.1117 5.39921 55.4016 5.5915 55.6952C6.73382 57.119 7.42712 58.8503 7.58332 60.6691V61.7524C7.58386 62.3505 8.06857 62.8352 8.66665 62.8357H21.6667C22.2647 62.8352 22.7494 62.3505 22.75 61.7524V59.5329C22.7511 58.3646 23.38 57.287 24.3967 56.7113C28.2952 54.5039 29.3606 52.5562 29.3711 52.5367C29.6497 52.0121 30.2971 51.8072 30.8269 52.076C31.3545 52.3442 31.567 52.9877 31.3029 53.5173C31.1759 53.7702 29.9371 56.0638 25.4637 58.5966C25.1262 58.7875 24.9173 59.1451 24.9167 59.5329V61.7524C24.9147 63.5465 23.4608 65.0004 21.6667 65.0024Z" fill="#05092B"/>
<path d="M8.66243 28.3651C8.37563 28.3663 8.10013 28.2533 7.89684 28.051C7.69355 27.8487 7.57921 27.5737 7.5791 27.2869V12.9979C7.5791 12.3996 8.06413 11.9146 8.66243 11.9146H19.2791C19.8774 11.9146 20.3624 12.3996 20.3624 12.9979C20.3624 13.5962 19.8774 14.0812 19.2791 14.0812H9.74577V27.2762C9.74643 27.8757 9.26191 28.3627 8.66243 28.3651Z" fill="#05092B"/>
<path d="M34.6624 44.5483C34.0641 44.5483 33.5791 44.0632 33.5791 43.4649V43.0858C33.5791 42.4875 34.0641 42.0024 34.6624 42.0024C35.2607 42.0024 35.7458 42.4875 35.7458 43.0858V43.4649C35.7458 44.0632 35.2607 44.5483 34.6624 44.5483Z" fill="#05092B"/>
<path d="M32.4958 47.6691H8.66244C8.06413 47.6691 7.5791 47.1841 7.5791 46.5858V36.37C7.5791 35.7716 8.06413 35.2866 8.66244 35.2866C9.26074 35.2866 9.74577 35.7716 9.74577 36.37V45.5025H32.4958C33.0941 45.5025 33.5791 45.9875 33.5791 46.5858C33.5791 47.1841 33.0941 47.6691 32.4958 47.6691Z" fill="#05092B"/>
<path d="M34.6624 38.0438C34.0641 38.0438 33.5791 37.5588 33.5791 36.9605V36.5921C33.5791 35.9938 34.0641 35.5088 34.6624 35.5088C35.2607 35.5088 35.7458 35.9938 35.7458 36.5921V36.9605C35.7458 37.5588 35.2607 38.0438 34.6624 38.0438Z" fill="#05092B"/>
<path d="M21.6709 53.0855C19.876 53.0855 18.4209 51.6304 18.4209 49.8354C18.4209 48.0405 19.876 46.5854 21.6709 46.5854C23.4658 46.5854 24.9209 48.0405 24.9209 49.8354C24.9189 51.6296 23.465 53.0835 21.6709 53.0855ZM21.6709 48.7521C21.0726 48.7521 20.5876 49.2371 20.5876 49.8354C20.5876 50.4338 21.0726 50.9188 21.6709 50.9188C22.2692 50.9188 22.7542 50.4338 22.7542 49.8354C22.7537 49.2374 22.269 48.7527 21.6709 48.7521Z" fill="#05092B"/>
<path d="M35.7458 36.8333C25.5745 36.8333 17.3291 28.5879 17.3291 18.4167C17.3291 8.24542 25.5745 0 35.7458 0C45.917 0 54.1624 8.24542 54.1624 18.4167C54.1511 28.5832 45.9123 36.822 35.7458 36.8333ZM35.7458 2.16667C26.7711 2.16667 19.4958 9.44204 19.4958 18.4167C19.4958 27.3913 26.7711 34.6667 35.7458 34.6667C44.7204 34.6667 51.9958 27.3913 51.9958 18.4167C51.9858 9.44617 44.7163 2.17664 35.7458 2.16667Z" fill="#05092B"/>
<path d="M42.1426 30.3331H27.1896C26.5388 30.3333 25.9217 30.0434 25.5065 29.5422C25.105 29.0627 24.9379 28.4293 25.0505 27.8141C25.8269 24.3884 28.5001 21.712 31.925 20.9317C32.504 20.781 33.0956 21.1281 33.2463 21.7071C33.3971 22.2862 33.0499 22.8777 32.4709 23.0285C29.8585 23.5967 27.8025 25.6111 27.1812 28.2114L42.1426 28.1664C41.8632 26.8133 41.1385 25.5928 40.0842 24.6997C39.9573 24.5914 39.8166 24.4812 39.6759 24.3707C39.2056 24.0009 39.1241 23.3198 39.4939 22.8494C39.8638 22.3791 40.5449 22.2976 41.0152 22.6674C41.1771 22.7949 41.3389 22.9235 41.5027 23.0621C42.9342 24.2838 43.9131 25.9515 44.2819 27.7969C44.3986 28.4167 44.2317 29.0562 43.8269 29.5399C43.4123 30.0427 42.7944 30.3337 42.1426 30.3331Z" fill="#05092B"/>
<path d="M37.9246 24.9142C33.7891 24.9199 30.0114 22.5701 28.1883 18.8582C26.3653 15.1462 26.8152 10.7201 29.3478 7.45088C29.7315 6.95726 30.3087 6.6521 30.9326 6.61292C31.5555 6.57031 32.166 6.80086 32.6052 7.24451L44.7544 19.3924C45.1949 19.8348 45.4244 20.445 45.3847 21.0681C45.3451 21.6911 45.04 22.2672 44.547 22.6503C42.6528 24.1206 40.3224 24.9172 37.9246 24.9142ZM31.073 8.77569C28.3957 12.2223 28.7005 17.1225 31.7842 20.2108C34.868 23.2991 39.7677 23.6111 43.2183 20.9388L43.9884 20.1581L43.2225 20.9241L31.073 8.77569Z" fill="#05092B"/>
<path d="M42.764 13.0029C41.2416 13.0026 39.8693 12.0855 39.2867 10.679C38.7041 9.27255 39.026 7.65363 40.1022 6.57697C41.5915 5.15403 43.9365 5.15403 45.4257 6.57697C46.502 7.65363 46.8239 9.27255 46.2413 10.679C45.6587 12.0855 44.2864 13.0026 42.764 13.0029ZM42.764 7.64037C42.1178 7.64042 41.5353 8.02967 41.288 8.62664C41.0407 9.2236 41.1773 9.91077 41.6341 10.3678C42.2665 10.9709 43.2612 10.9711 43.8939 10.3683V10.3672C44.3509 9.91037 44.4876 9.22317 44.2402 8.6262C43.9929 8.02923 43.4102 7.64011 42.764 7.64037Z" fill="#05092B"/>
<path d="M37.9122 15.167C37.4741 15.1669 37.0792 14.903 36.9116 14.4982C36.7439 14.0935 36.8366 13.6276 37.1463 13.3178L40.093 10.3711C40.3652 10.0904 40.7675 9.97825 41.1456 10.0775C41.5238 10.1768 41.8191 10.4721 41.9184 10.8502C42.0177 11.2284 41.9055 11.6307 41.6249 11.9029L38.6783 14.8496C38.4753 15.0531 38.1996 15.1674 37.9122 15.167Z" fill="#05092B"/>
</svg>
