<svg width="65" height="65" viewBox="0 0 65 65" fill="none" xmlns="http://www.w3.org/2000/svg">
<g clip-path="url(#clip0_36_196)">
<path d="M33.8404 36.8197C31.412 36.8084 28.9995 36.428 26.6855 35.6914C22.9883 34.4545 20.2421 31.3245 19.4967 27.4977C18.6811 23.569 20.1675 19.415 23.5741 16.101C23.9396 15.7451 24.3194 15.4041 24.7135 15.0781C28.2015 12.158 32.9039 11.1432 37.2856 12.365C41.5277 13.7189 44.4589 17.5957 44.6055 22.0462C44.7643 24.608 43.9293 27.1324 42.2743 29.0942C40.9978 30.7022 38.9295 31.4617 36.9158 31.062C36.0922 30.8911 35.3737 30.3923 34.9256 29.6805C34.5235 28.9891 34.4204 28.1638 34.64 27.3947C35.5874 23.8136 36.5506 18.3715 36.5601 18.3164C36.6274 17.9351 36.893 17.6187 37.2568 17.4864C37.6206 17.3541 38.0273 17.4258 38.3238 17.6747C38.6204 17.9236 38.7616 18.3118 38.6943 18.693C38.6541 18.9194 37.7056 24.28 36.735 27.9485C36.6657 28.1518 36.6831 28.3746 36.7831 28.5647C36.9329 28.772 37.1589 28.9113 37.4114 28.9519C38.6441 29.1576 39.8894 28.6631 40.645 27.6676C41.9303 26.13 42.5743 24.1565 42.4434 22.1568C42.3374 18.6143 40.0144 15.5214 36.6417 14.4326C32.9602 13.42 29.0162 14.2851 26.0964 16.7455C25.7483 17.0344 25.4098 17.3369 25.085 17.6532C23.4009 19.2915 20.7115 22.6907 21.6177 27.0566C22.2266 30.1067 24.405 32.6064 27.3432 33.6265C32.4241 35.2472 39.7249 35.4423 43.5716 30.6594C43.9495 30.2043 44.6227 30.1365 45.0838 30.5071C45.5449 30.8778 45.6233 31.5498 45.26 32.0167C42.4155 35.5541 38.087 36.8197 33.8404 36.8197Z" fill="#05092B"/>
<path d="M30.1333 31.2065C28.9882 31.2262 27.8713 30.8506 26.9706 30.1432C24.8913 28.4791 24.8341 25.5882 25.417 23.6195C25.6133 22.9638 25.8769 22.3302 26.2036 21.7288C27.0165 20.0888 28.3162 18.7399 29.925 17.8669C31.9284 16.8273 34.3762 17.2215 35.952 18.8375C36.7338 19.6942 37.3226 20.7087 37.6788 21.8125C37.8675 22.3726 37.5724 22.9805 37.0156 23.1788C36.4589 23.3771 35.8459 23.0925 35.638 22.5393C35.3812 21.7238 34.9543 20.9722 34.3855 20.3339C33.4668 19.3944 32.0353 19.1807 30.8822 19.8108C29.6757 20.4912 28.7061 21.5243 28.1035 22.7714C27.8502 23.2387 27.6456 23.7308 27.493 24.2399C27.072 25.6639 27.1645 27.5224 28.3262 28.4526C29.5962 29.4725 31.7387 29.0413 32.9441 28.0014C33.8425 27.1927 34.6143 26.2537 35.234 25.2159C35.4346 24.8796 35.8011 24.6779 36.1925 24.6881C36.5839 24.6983 36.9393 24.9189 37.1222 25.2652C37.305 25.6114 37.2868 26.0293 37.0745 26.3583C36.3406 27.5813 35.4269 28.6868 34.364 29.6379C33.1794 30.6374 31.6832 31.1922 30.1333 31.2065Z" fill="#05092B"/>
<path d="M61.75 64.9965H3.25C1.45589 64.9945 0.00197027 63.5406 0 61.7465V21.6631C1.703e-05 21.243 0.242902 20.8608 0.623223 20.6824C1.00355 20.504 1.45273 20.5615 1.7758 20.83L28.3577 42.9219C30.7628 44.9083 34.2395 44.9076 36.644 42.9204L63.2233 20.83C63.5464 20.561 63.9959 20.5031 64.3766 20.6816C64.7573 20.8601 65.0003 21.2427 65 21.6631V61.7465C64.998 63.5406 63.5441 64.9945 61.75 64.9965ZM2.16667 23.972V61.7465C2.16744 62.3444 2.65201 62.829 3.25 62.8298H61.75C62.3481 62.8293 62.8328 62.3445 62.8333 61.7465V23.972L38.0273 44.5879C34.8199 47.2385 30.1825 47.2392 26.9744 44.5895L2.16667 23.972Z" fill="#05092B"/>
<path d="M1.08439 22.7511C0.612526 22.7516 0.194658 22.4465 0.0512902 21.9969C-0.0920772 21.5474 0.0720382 21.0567 0.457035 20.7839L10.207 13.8722C10.6952 13.5339 11.3647 13.6517 11.7081 14.1363C12.0514 14.6209 11.9406 15.2916 11.4596 15.64L1.70959 22.5517C1.52702 22.6816 1.30847 22.7513 1.08439 22.7511Z" fill="#05092B"/>
<path d="M63.915 22.7511C63.6909 22.7513 63.4723 22.6816 63.2898 22.5517L53.5398 15.64C53.0587 15.2916 52.9479 14.6209 53.2913 14.1363C53.6346 13.6517 54.3042 13.5339 54.7923 13.8722L64.5423 20.7839C64.9273 21.0567 65.0914 21.5474 64.9481 21.9969C64.8047 22.4465 64.3868 22.7516 63.915 22.7511Z" fill="#05092B"/>
<path d="M42.5067 7.58157C42.2824 7.58169 42.0637 7.51198 41.8809 7.38213L36.7025 3.70963C34.2987 1.67836 30.7861 1.6572 28.358 3.65936L23.1147 7.38224C22.7989 7.60617 22.3877 7.64464 22.0358 7.48313C21.684 7.32162 21.4451 6.98468 21.409 6.59924C21.373 6.21379 21.5453 5.83839 21.8611 5.61445L27.0394 1.94195C30.2392 -0.674337 34.845 -0.653527 38.0209 1.99157L43.1343 5.61402C43.5196 5.88678 43.6839 6.37767 43.5405 6.82744C43.397 7.27721 42.9788 7.58229 42.5067 7.58157Z" fill="#05092B"/>
<path d="M1.78892 64.4123C1.33237 64.4127 0.924573 64.1269 0.769259 63.6975C0.613945 63.2682 0.744457 62.7876 1.09559 62.4958L25.8173 41.9558C26.1143 41.7032 26.5242 41.6297 26.8905 41.7635C27.2568 41.8972 27.523 42.2174 27.5875 42.602C27.6519 42.9866 27.5047 43.3761 27.2021 43.622L2.48042 64.162C2.28632 64.3238 2.04162 64.4124 1.78892 64.4123Z" fill="#05092B"/>
<path d="M63.2132 64.4122C62.9607 64.4124 62.7162 64.3238 62.5224 64.162L37.8007 43.622C37.498 43.3761 37.3509 42.9866 37.4153 42.602C37.4798 42.2174 37.746 41.8972 38.1123 41.7635C38.4786 41.6297 38.8885 41.7032 39.1855 41.9558L63.9065 62.4958C64.2577 62.7876 64.3882 63.2682 64.2329 63.6975C64.0776 64.1269 63.6698 64.4126 63.2132 64.4122Z" fill="#05092B"/>
<path d="M54.1667 30.8516C53.5684 30.8516 53.0833 30.3665 53.0833 29.7682V7.59002C53.0802 7.61277 53.0368 7.58211 52.9642 7.58157H12.0358C11.9879 7.57863 11.941 7.59547 11.9058 7.62815L11.9167 29.7682C11.9167 30.3665 11.4316 30.8516 10.8333 30.8516C10.235 30.8516 9.75 30.3665 9.75 29.7682V7.58157C9.78495 6.35295 10.8071 5.38408 12.0358 5.4149H52.9642C54.1928 5.3842 55.2149 6.35301 55.25 7.58157V29.7682C55.25 30.3665 54.765 30.8516 54.1667 30.8516Z" fill="#05092B"/>
</g>
<defs>
<clipPath id="clip0_36_196">
<rect width="65" height="65" fill="white"/>
</clipPath>
</defs>
</svg>
